<svg id="SvgjsSvg1018" width="288" height="288" xmlns="http://www.w3.org/2000/svg" version="1.1" xmlns:xlink="http://www.w3.org/1999/xlink" xmlns:svgjs="http://svgjs.com/svgjs"><defs id="SvgjsDefs1019"></defs><g id="SvgjsG1020"><svg xmlns="http://www.w3.org/2000/svg" enable-background="new 0 0 48 48" viewBox="0 0 48 48" width="288" height="288"><rect width="44" height="24" x="2" y="13" fill="#000000" class="colorcfd8dc svgShape"></rect><rect width="44" height="4" x="2" y="11" fill="#000000" class="color009688 svgShape"></rect><polygon fill="#ffffff" points="46 15 2 15 4 18 6 17 8 18 11 16 15 18 17 17 19 18 21 17 23 18 25 16 29 18 32 17 34 18 36 17 38 18 40 17 42 18 44 18" class="colorfff svgShape"></polygon><rect width="19" height="2" x="7" y="25" fill="#5d5d5d" class="color607d8b svgShape"></rect><rect width="19" height="2" x="7" y="29" fill="#5d5d5d" class="color607d8b svgShape"></rect><path fill="#545454" d="M34.667,32.444c-0.888,0-1.417-1.038-1.417-2.775c0-1.366,0.428-2.741,1.262-3.636	c-0.293-0.397-0.614-0.616-0.882-0.616c-1.541,0-2.148,1.818-2.154,1.837c-0.085,0.262-0.363,0.406-0.63,0.321
	c-0.263-0.085-0.406-0.367-0.321-0.63c0.033-0.103,0.845-2.528,3.105-2.528c0.62,0,1.199,0.374,1.666,0.995
	c0.436-0.244,0.939-0.383,1.51-0.383c0.556,0,1.115,0.232,1.546,0.688c0.487-0.445,1.112-0.467,1.574-0.176
	c0.339-0.956,1.016-2.04,2.074-2.04c0.276,0,0.5,0.224,0.5,0.5s-0.224,0.5-0.5,0.5c-0.766,0-1.333,1.78-1.333,2.25
	c0,0.276-0.224,0.5-0.5,0.5s-0.5-0.224-0.5-0.5c-0.005-0.117-0.235-0.417-0.417-0.417c-0.096,0-0.227,0.088-0.352,0.259
	c0.152,0.39,0.24,0.85,0.24,1.38c0,0.559,0,1.722-0.806,1.722s-0.806-1.251-0.806-1.722c0-0.533,0.092-0.998,0.243-1.381
	c-0.255-0.373-0.611-0.563-0.965-0.563c-0.383,0-0.717,0.091-1.005,0.248c0.367,0.808,0.588,1.814,0.588,2.892
	C36.389,31.419,35.496,32.444,34.667,32.444z M35.018,26.993c-0.544,0.764-0.768,1.837-0.768,2.676c0,1.353,0.352,1.753,0.42,1.776
	c0.149,0,0.719-0.57,0.719-2.277C35.389,28.323,35.24,27.585,35.018,26.993z" class="color3f51b5 svgShape"></path><polygon fill="#edf1ec" points="39 37 46 30 39.993 30.979" class="coloreceff1 svgShape"></polygon><polygon fill="#e2e2e2" points="39 37 46 30 46 37" class="colorb0bec5 svgShape"></polygon></svg></g></svg>